<svg data-token-name="pig_colored" width="24" height="24" viewBox="0 0 24 24" fill="none" xmlns="http://www.w3.org/2000/svg">
<rect width="24" height="24" rx="12" fill="#3C88FA"/>
<path d="M15.3196 11.9805C15.3304 11.9913 15.3304 12.0087 15.3196 12.0195C15.3088 12.0303 15.2914 12.0303 15.2806 12.0195C15.2698 12.0087 15.2698 11.9913 15.2806 11.9805C15.2914 11.9697 15.3094 11.9703 15.3196 11.9805Z" stroke="currentColor" fill="none" stroke-linecap="round" stroke-linejoin="round"/>
<path d="M13.8976 8.9868C14.0242 8.7162 14.1004 8.418 14.1004 8.1C14.1004 6.9402 13.1602 6 12.0004 6C10.8406 6 9.90039 6.9402 9.90039 8.1C9.90039 8.4738 10.006 8.82 10.1776 9.1236" stroke="currentColor" fill="none" stroke-linecap="round" stroke-linejoin="round"/>
<path d="M6.4728 10.8008C6.1914 10.9646 6 11.2664 6 11.6156C6 12.1382 6.4236 12.5618 6.9462 12.5618H7.5" stroke="currentColor" fill="none" stroke-linecap="round" stroke-linejoin="round"/>
<path d="M16.2 8.40039V9.93279C16.6308 10.3216 16.9728 10.8064 17.1756 11.3614H17.7C18.0312 11.3614 18.3 11.6302 18.3 11.9614V13.8004C18.3 14.1316 18.0312 14.4004 17.7 14.4004H16.9134C16.5984 14.9452 16.1436 15.3988 15.6 15.715V16.8004C15.6 17.1316 15.3312 17.4004 15 17.4004H13.8C13.4688 17.4004 13.2 17.1316 13.2 16.8004V16.2004H11.1V16.7212C11.1 17.0524 10.8312 17.3212 10.5 17.3212H9.3C8.9688 17.3212 8.7 17.0524 8.7 16.7212V15.2782C7.965 14.6188 7.5 13.6654 7.5 12.6004C7.5 10.612 9.1116 9.00039 11.1 9.00039H13.8156C14.073 9.00039 14.3226 8.91579 14.5278 8.76099C14.8272 8.53539 15.1968 8.40039 15.6 8.40039H16.2Z" stroke="currentColor" fill="none" stroke-linecap="round" stroke-linejoin="round"/>
</svg>
